<svg width="22" height="26" viewBox="0 0 22 26" fill="none" xmlns="http://www.w3.org/2000/svg">
<path d="M2.5 4.68062V18.3125C2.49979 19.6613 3.01262 20.9596 3.93446 21.9442C4.8563 22.9288 6.11813 23.5259 7.464 23.6144L7.8125 23.625H17.1922C16.9726 24.2464 16.5656 24.7844 16.0275 25.165C15.4894 25.5455 14.8466 25.7499 14.1875 25.75H6.75C5.05925 25.75 3.43774 25.0784 2.24219 23.8828C1.04665 22.6873 0.375 21.0658 0.375 19.375V7.6875C0.374655 7.02806 0.578847 6.38474 0.959435 5.84621C1.34002 5.30767 1.87827 4.90044 2.5 4.68062ZM18.4375 0.25C19.2829 0.25 20.0936 0.585825 20.6914 1.1836C21.2892 1.78137 21.625 2.59212 21.625 3.4375V18.3125C21.625 19.1579 21.2892 19.9686 20.6914 20.5664C20.0936 21.1642 19.2829 21.5 18.4375 21.5H7.8125C6.96712 21.5 6.15637 21.1642 5.5586 20.5664C4.96082 19.9686 4.625 19.1579 4.625 18.3125V3.4375C4.625 2.59212 4.96082 1.78137 5.5586 1.1836C6.15637 0.585825 6.96712 0.25 7.8125 0.25H18.4375Z" fill="#ED0137"/>
</svg>
