<svg width="24" height="20" viewBox="0 0 24 20" fill="none" xmlns="http://www.w3.org/2000/svg">
<path d="M23.1787 2.63819C22.3184 3.0114 21.4086 3.25811 20.4777 3.37066C21.4599 2.78391 22.1959 1.86084 22.5492 0.772688C21.6263 1.32211 20.616 1.70921 19.5621 1.91717C18.8577 1.15331 17.9198 0.644838 16.8952 0.471518C15.8708 0.298186 14.8177 0.469801 13.9013 0.959444C12.9848 1.4491 12.2568 2.22907 11.8314 3.17705C11.406 4.12503 11.3073 5.1874 11.5508 6.19753C9.68456 6.10313 7.85916 5.61722 6.19304 4.77134C4.52692 3.92547 3.05739 2.73855 1.87989 1.2877C1.46689 2.00891 1.24988 2.82568 1.25043 3.65678C1.24896 4.42859 1.43837 5.18879 1.80179 5.8697C2.1652 6.55061 2.69135 7.13109 3.33338 7.55949C2.58716 7.53912 1.85687 7.3389 1.20465 6.97577V7.033C1.21024 8.11445 1.58918 9.16073 2.27738 9.99483C2.96559 10.829 3.9208 11.3999 4.98143 11.611C4.57315 11.7351 4.14925 11.8007 3.7225 11.8055C3.4271 11.8021 3.13243 11.7752 2.84125 11.7254C3.14329 12.6556 3.72779 13.4686 4.51342 14.0511C5.29906 14.6336 6.24675 14.9568 7.22461 14.9757C5.57336 16.2749 3.53467 16.9841 1.43354 16.99C1.05099 16.9913 0.668732 16.9683 0.289062 16.9213C2.43431 18.3064 4.93429 19.0417 7.48784 19.0386C9.24999 19.0569 10.9981 18.7239 12.6301 18.059C14.2621 17.3941 15.7453 16.4107 16.993 15.1663C18.2407 13.9218 19.2279 12.4412 19.897 10.8108C20.5661 9.18053 20.9034 7.43324 20.8897 5.67106C20.8897 5.47649 20.8897 5.2705 20.8897 5.06449C21.7878 4.39475 22.5624 3.57371 23.1787 2.63819Z" fill="#FF012A"/>
</svg>
