<svg width="22" height="18" viewBox="0 0 22 18" fill="none" xmlns="http://www.w3.org/2000/svg">
<path d="M15.6432 5.63327C16.275 5.00151 16.9022 3.52741 14.2698 5.31739C11.8109 7.00975 9.33525 8.67762 6.84334 10.321C6.46387 10.4926 6.05364 10.5858 5.63729 10.5949C5.22093 10.6038 4.80703 10.5287 4.42048 10.3737C2.8411 9.89993 0.997332 9.26818 0.997332 9.26818C0.997332 9.26818 -0.261589 8.47735 1.89347 7.63493C1.89347 7.63493 11.0047 3.89595 14.1646 2.57864C15.3755 2.05218 19.4829 0.367502 19.4829 0.367502C19.4829 0.367502 21.3794 -0.370682 21.2214 1.42043C21.1689 2.15748 20.7476 4.73943 20.3264 7.52972C19.6936 11.4793 19.0092 15.7985 19.0092 15.7985C19.0092 15.7985 18.9039 17.0094 18.0089 17.22C17.0509 17.2038 16.1251 16.8705 15.3766 16.2724C15.166 16.1144 11.427 13.7442 10.057 12.586C9.91768 12.4916 9.80446 12.3634 9.72791 12.2135C9.65136 12.0637 9.61398 11.8968 9.61924 11.7286C9.62449 11.5603 9.67226 11.3962 9.75801 11.2513C9.84375 11.1065 9.96473 10.9857 10.1097 10.9001C11.9886 9.18112 13.8335 7.42511 15.6432 5.63327Z" fill="#FF012A"/>
</svg>
